<svg xmlns="http://www.w3.org/2000/svg" viewBox="0 0 64 64">
  <defs>
    <linearGradient id="g" x1="8" y1="8" x2="56" y2="56" gradientUnits="userSpaceOnUse">
      <stop stop-color="#ffd35a"/>
      <stop offset=".45" stop-color="#19d3b1"/>
      <stop offset="1" stop-color="#e43f4f"/>
    </linearGradient>
  </defs>
  <rect width="64" height="64" rx="14" fill="#050610"/>
  <circle cx="32" cy="32" r="22" fill="url(#g)"/>
  <circle cx="32" cy="32" r="15" fill="#050610"/>
  <path fill="#f9fbff" d="M22 40h20v5H16v-4c0-6 5-9 10-11 4-2 9-4 9-8 0-3-2-5-6-5-3 0-6 2-8 5l-5-3c3-5 8-8 14-8 7 0 12 4 12 10 0 8-7 11-13 14-3 1-6 3-7 5Z"/>
</svg>
